<svg width="24" height="24" viewBox="0 0 24 24" fill="none" xmlns="http://www.w3.org/2000/svg">
<path d="M12 22C17.5228 22 22 17.5228 22 12C22 6.47715 17.5228 2 12 2C6.47715 2 2 6.47715 2 12C2 17.5228 6.47715 22 12 22Z" stroke="#F9E7E7" stroke-width="2" stroke-linecap="round" stroke-linejoin="round"/>
<path d="M9.5 7.33337H14.1667C14.7855 7.33337 15.379 7.57921 15.8166 8.01679C16.2542 8.45438 16.5 9.04787 16.5 9.66671C16.5 10.2855 16.2542 10.879 15.8166 11.3166C15.379 11.7542 14.7855 12 14.1667 12H9.5V7.33337Z" stroke="#F9E7E7" stroke-width="2" stroke-linecap="round" stroke-linejoin="round"/>
<path d="M9.5 12V16.6667" stroke="#F9E7E7" stroke-width="2" stroke-linecap="round" stroke-linejoin="round"/>
<path d="M12 22C17.5228 22 22 17.5228 22 12C22 6.47715 17.5228 2 12 2C6.47715 2 2 6.47715 2 12C2 17.5228 6.47715 22 12 22Z" stroke="#F9E7E7" stroke-width="2" stroke-linecap="round" stroke-linejoin="round"/>
<path d="M9.5 7.33337H14.1667C14.7855 7.33337 15.379 7.57921 15.8166 8.01679C16.2542 8.45438 16.5 9.04787 16.5 9.66671C16.5 10.2855 16.2542 10.879 15.8166 11.3166C15.379 11.7542 14.7855 12 14.1667 12H9.5V7.33337Z" stroke="#F9E7E7" stroke-width="2" stroke-linecap="round" stroke-linejoin="round"/>
<path d="M9.5 12V16.6667" stroke="#F9E7E7" stroke-width="2" stroke-linecap="round" stroke-linejoin="round"/>
</svg>
